<svg width="1440" height="880" viewBox="0 0 1440 880" fill="none" xmlns="http://www.w3.org/2000/svg">
<path d="M858.5 416.401C858.5 456.105 837.51 506.039 808.97 539.064C794.703 555.575 778.591 567.809 762.329 572.454C746.103 577.088 729.692 574.181 714.714 560.329C699.545 546.3 679.157 535.349 657.562 525.548C647.585 521.02 637.339 516.732 627.224 512.499C626.39 512.15 625.557 511.801 624.724 511.453C613.798 506.878 603.063 502.349 593.006 497.622C572.877 488.163 555.535 477.945 544.847 465.064C534.194 452.224 530.132 436.715 536.616 416.554C543.127 396.305 552.419 382.431 563.791 371.995C575.171 361.551 588.658 354.528 603.602 348.014C608.758 345.767 614.087 343.581 619.56 341.336C645.788 330.576 675.307 318.466 704.865 291.784C722.59 275.783 741.012 270.628 758.674 273.08C776.357 275.536 793.344 285.627 808.149 300.244C837.767 329.488 858.5 376.699 858.5 416.401Z" stroke="#E0E0E0"/>
<path d="M892.5 414.901C892.5 463.022 867.119 523.527 832.613 563.543C815.362 583.549 795.873 598.384 776.193 604.018C756.549 609.641 736.676 606.111 718.548 589.308C700.227 572.328 675.599 559.07 649.502 547.199C637.444 541.715 625.062 536.522 612.836 531.394C611.829 530.972 610.822 530.55 609.817 530.128C596.612 524.587 583.635 519.1 571.478 513.374C547.15 501.916 526.171 489.532 513.239 473.911C500.34 458.331 495.424 439.509 503.271 415.054C511.145 390.513 522.385 373.692 536.144 361.038C549.911 348.376 566.223 339.864 584.287 331.973C590.522 329.25 596.965 326.601 603.579 323.881C635.278 310.849 670.936 296.188 706.644 263.884C728.087 244.485 750.382 238.228 771.761 241.204C793.162 244.182 813.712 256.42 831.615 274.134C867.429 309.573 892.5 366.783 892.5 414.901Z" stroke="#E0E0E0"/>
<path d="M932.5 413.168C932.5 471.02 901.954 543.747 860.429 591.847C839.669 615.894 816.207 633.736 792.504 640.513C768.837 647.28 744.893 643.03 723.056 622.814C701.029 602.422 671.412 586.496 640.018 572.233C625.514 565.644 610.621 559.405 595.913 553.244C594.7 552.736 593.489 552.228 592.278 551.721C576.392 545.062 560.779 538.469 546.151 531.587C516.881 517.818 491.625 502.928 476.051 484.139C460.511 465.392 454.591 442.738 464.041 413.321C473.519 383.816 487.05 363.588 503.617 348.369C520.191 333.143 539.829 322.909 561.564 313.426C569.067 310.152 576.82 306.969 584.779 303.7C622.913 288.04 665.792 270.43 708.737 231.625C734.554 208.297 761.404 200.767 787.158 204.346C812.933 207.929 837.675 222.649 859.222 243.946C902.327 286.548 932.5 355.318 932.5 413.168Z" stroke="#E0E0E0"/>
<path d="M967.5 411.621C967.5 478.153 932.434 561.781 884.768 617.09C860.936 644.743 833.998 665.266 806.776 673.063C779.589 680.85 752.082 675.957 727.002 652.699C701.731 629.263 667.749 610.957 631.72 594.561C615.076 586.985 597.983 579.813 581.103 572.73C579.711 572.146 578.321 571.562 576.933 570.979C558.7 563.324 540.78 555.743 523.99 547.831C490.397 532.001 461.398 514.877 443.513 493.263C425.662 471.689 418.861 445.619 429.715 411.774C440.597 377.842 456.132 354.575 475.156 337.07C494.188 319.557 516.734 307.787 541.681 296.884C550.294 293.119 559.193 289.458 568.329 285.7C612.094 267.696 661.293 247.457 710.569 202.854C740.213 176.021 771.05 167.355 800.63 171.474C830.232 175.596 858.641 192.529 883.378 217.02C932.861 266.011 967.5 345.092 967.5 411.621Z" stroke="#E0E0E0"/>
<path d="M1009.5 409.794C1009.5 486.583 969.01 583.094 913.974 646.924C886.458 678.836 855.348 702.529 823.902 711.531C792.492 720.523 760.71 714.872 731.737 688.016C702.573 660.983 663.353 639.866 621.763 620.948C602.549 612.208 582.819 603.933 563.333 595.76C561.726 595.086 560.121 594.412 558.517 593.739C537.47 584.907 516.781 576.159 497.397 567.029C458.615 548.763 425.125 528.998 404.466 504.044C383.842 479.132 375.986 449.023 388.524 409.947C401.09 370.783 419.031 343.925 441.003 323.716C462.983 303.5 489.02 289.916 517.822 277.334C527.767 272.989 538.041 268.765 548.588 264.428C599.11 243.654 655.892 220.306 712.766 168.851C747.003 137.876 782.624 127.869 816.797 132.624C850.992 137.383 883.802 156.933 912.366 185.199C969.503 241.74 1009.5 333.007 1009.5 409.794Z" stroke="#E0E0E0"/>
<path d="M1057.5 407.685C1057.5 496.31 1010.81 607.686 947.353 681.347C915.625 718.175 879.748 745.525 843.475 755.918C807.238 766.301 770.57 759.773 737.148 728.768C703.535 697.585 658.33 673.223 610.383 651.394C588.234 641.31 565.49 631.763 543.025 622.333C541.172 621.555 539.32 620.778 537.471 620.001C513.206 609.81 489.354 599.715 467.005 589.18C422.293 568.103 383.67 545.292 359.842 516.485C336.048 487.719 326.986 452.951 341.449 407.838C355.939 362.638 376.629 331.636 401.971 308.308C427.32 284.973 457.347 269.295 490.554 254.776C502.021 249.762 513.867 244.887 526.028 239.883C584.272 215.913 649.721 188.979 715.278 129.617C754.764 93.8632 795.852 82.3071 835.274 87.7981C874.716 93.292 912.557 115.861 945.495 148.483C1011.38 213.736 1057.5 319.063 1057.5 407.685Z" stroke="#E0E0E0"/>
<path d="M1117.5 405.061C1117.5 508.414 1063.06 638.29 989.076 724.185C952.084 767.13 910.247 799.031 867.941 811.155C825.671 823.268 782.894 815.651 743.912 779.48C704.738 743.133 652.05 714.733 596.158 689.283C570.338 677.527 543.825 666.395 517.636 655.4C515.476 654.493 513.318 653.587 511.164 652.682C482.877 640.8 455.07 629.03 429.015 616.746C376.891 592.171 331.851 565.568 304.061 531.967C276.305 498.406 265.736 457.839 282.604 405.214C299.5 352.502 323.627 316.342 353.18 289.133C382.741 261.917 417.756 243.634 456.469 226.704C469.839 220.857 483.65 215.173 497.827 209.338C565.725 181.391 642.006 149.994 718.418 80.7928C764.465 39.0917 812.387 25.6085 858.369 32.0143C904.373 38.423 948.501 64.7489 986.906 102.792C1063.73 178.886 1117.5 301.71 1117.5 405.061Z" stroke="#E0E0E0"/>
<path d="M1174.5 402.578C1174.5 519.87 1112.7 667.253 1028.71 764.727C986.72 813.462 939.222 849.671 891.184 863.432C843.182 877.183 794.603 868.534 750.337 827.476C705.88 786.241 646.084 754.019 582.644 725.143C553.337 711.802 523.241 699.171 493.513 686.695C491.063 685.666 488.616 684.639 486.172 683.613C454.064 670.13 422.499 656.774 392.924 642.834C333.758 614.949 282.623 584.758 251.07 546.619C219.55 508.52 207.549 462.465 226.702 402.73C245.883 342.908 273.275 301.869 306.829 270.986C340.392 240.097 380.144 219.347 424.088 200.137C439.266 193.501 454.944 187.051 471.036 180.429C548.105 148.718 634.677 113.097 721.401 34.5841C773.68 -12.7456 828.094 -28.0528 880.31 -20.7811C932.546 -13.5065 982.647 16.3749 1026.25 59.548C1113.45 145.903 1174.5 285.287 1174.5 402.578Z" stroke="#E0E0E0"/>
<path d="M1246.5 399.438C1246.5 534.352 1175.41 703.868 1078.78 815.979C1030.47 872.033 975.822 913.687 920.544 929.518C865.301 945.34 809.393 935.388 758.454 888.15C707.323 840.735 638.548 803.683 565.574 770.474C531.865 755.133 497.249 740.608 463.054 726.26C460.234 725.077 457.416 723.895 454.602 722.713C417.669 707.207 381.358 691.847 347.335 675.815C279.275 643.744 220.44 609.018 184.133 565.141C147.859 521.306 134.049 468.314 156.089 399.591C178.157 330.781 209.672 283.572 248.281 248.046C286.898 212.512 332.634 188.645 383.185 166.551C400.647 158.919 418.683 151.5 437.195 143.884C525.848 107.415 625.42 66.4542 725.168 -23.8306C785.32 -78.2757 847.936 -95.8886 908.024 -87.5225C968.134 -79.1534 1025.78 -44.7771 1075.94 4.88148C1176.27 104.208 1246.5 264.526 1246.5 399.438Z" stroke="#E0E0E0"/>
<path d="M1314.5 396.486C1314.5 547.97 1234.62 738.296 1126.07 864.172C1071.79 927.107 1010.39 973.881 948.272 991.66C886.191 1009.43 823.361 998.25 766.119 945.202C708.686 891.977 631.431 850.382 549.453 813.099C511.582 795.876 472.694 779.569 434.278 763.46C431.111 762.132 427.947 760.805 424.787 759.479C383.296 742.071 342.503 724.825 304.279 706.826C227.819 670.82 161.712 631.829 120.915 582.558C80.1507 533.328 64.6325 473.813 89.3987 396.639C114.193 319.378 149.603 266.367 192.985 226.474C236.375 186.575 287.763 159.776 344.556 134.97C364.174 126.401 384.437 118.071 405.234 109.521C504.827 68.5779 616.676 22.5959 728.726 -78.7578C796.314 -139.894 866.675 -159.675 934.199 -150.279C1001.74 -140.881 1066.52 -102.278 1122.87 -46.5212C1235.59 65.0018 1314.5 245.005 1314.5 396.486Z" stroke="#E0E0E0"/>
<path d="M1383.5 393.487C1383.5 561.803 1294.71 773.272 1174.05 913.129C1113.72 983.056 1045.46 1035.03 976.408 1054.79C907.389 1074.53 837.534 1062.11 773.897 1003.16C710.069 944.032 624.209 897.822 533.094 856.401C491.005 837.267 447.784 819.151 405.088 801.254C401.566 799.778 398.047 798.303 394.533 796.829C348.417 777.488 303.076 758.328 260.59 738.33C175.606 698.326 102.121 655.002 56.7667 600.251C11.4467 545.541 -5.80492 479.399 21.7277 393.64C49.2884 307.794 88.6507 248.889 136.876 204.561C185.11 160.225 242.233 130.448 305.358 102.888C327.165 93.3676 349.687 84.1122 372.803 74.6128C483.497 29.1242 607.804 -21.9585 732.337 -134.557C807.47 -202.49 885.69 -224.473 960.759 -214.032C1035.85 -203.588 1107.85 -160.692 1170.5 -98.7399C1295.79 25.1734 1383.5 225.173 1383.5 393.487Z" stroke="#E0E0E0"/>
<path d="M1454.5 390.394C1454.5 576.069 1356.55 809.34 1223.42 963.616C1156.86 1040.75 1081.55 1098.09 1005.36 1119.89C929.201 1141.67 852.118 1127.96 781.901 1062.93C711.492 997.713 616.778 946.745 516.261 901.056C469.827 879.95 422.144 859.966 375.039 840.224C371.156 838.597 367.277 836.971 363.403 835.346C312.528 814.012 262.506 792.877 215.635 770.818C121.88 726.692 40.8017 678.899 -9.24044 618.497C-59.2486 558.136 -78.284 485.16 -47.9047 390.547C-17.4975 295.847 25.9316 230.865 79.1412 181.963C132.359 133.053 195.383 100.204 265.024 69.8039C289.082 59.3015 313.93 49.0919 339.433 38.6134C461.55 -11.5625 598.676 -67.9053 736.052 -192.1C818.949 -267.042 905.256 -291.297 988.089 -279.777C1070.94 -268.255 1150.38 -220.931 1219.5 -152.59C1357.73 -15.8996 1454.5 204.722 1454.5 390.394Z" stroke="#E0E0E0"/>
</svg>
