<svg width="40" height="38" viewBox="0 0 40 38" fill="none" xmlns="http://www.w3.org/2000/svg">
<path d="M28.4284 0C34.8089 0 40 5.30956 40 11.8378V26.1622C40 32.6904 34.8089 38 28.4284 38C27.6924 38 27.0951 37.3888 27.0951 36.6358C27.0951 35.8827 27.6924 35.2716 28.4284 35.2716C33.3387 35.2716 37.3333 31.1862 37.3333 26.1622V14.73H30.7662C28.6098 14.7318 26.8516 16.5289 26.8498 18.7372C26.8516 20.9454 28.6098 22.7425 30.7662 22.7443H33.4951C34.2311 22.7443 34.8284 23.3555 34.8284 24.1086C34.8284 24.8616 34.2311 25.4728 33.4951 25.4728H30.7662C27.1378 25.471 24.1849 22.4497 24.1831 18.7372C24.1849 15.0247 27.1378 12.0034 30.7662 12.0015H37.3333V11.8378C37.3333 6.81384 33.3387 2.72845 28.4284 2.72845H11.5698C7.61244 2.72845 4.29156 5.39869 3.13422 9.05663H20.7093C21.4453 9.05663 22.0427 9.6678 22.0427 10.4209C22.0427 11.1757 21.4453 11.7851 20.7093 11.7851H2.672L2.66667 11.8378V26.1622C2.66667 31.1862 6.65956 35.2716 11.5698 35.2716H20.0516C20.7876 35.2716 21.3849 35.8827 21.3849 36.6358C21.3849 37.3888 20.7876 38 20.0516 38H11.5698C5.18933 38 0 32.6904 0 26.1622V11.8378C0 5.30956 5.18933 0 11.5698 0H28.4284ZM31.6615 17.25C32.3975 17.25 32.9948 17.8611 32.9948 18.6142C32.9948 19.3672 32.3975 19.9784 31.6615 19.9784H31.0553C30.3193 19.9784 29.722 19.3672 29.722 18.6142C29.722 17.8611 30.3193 17.25 31.0553 17.25H31.6615Z" fill="url(#paint0_angular_43_37)"/>
<defs>
<radialGradient id="paint0_angular_43_37" cx="0" cy="0" r="1" gradientUnits="userSpaceOnUse" gradientTransform="translate(20 19) rotate(90) scale(19 20)">
<stop stop-color="#0014FF"/>
<stop offset="1" stop-color="#FF2CDF"/>
</radialGradient>
</defs>
</svg>
