<svg width="34" height="40" viewBox="0 0 34 40" fill="none" xmlns="http://www.w3.org/2000/svg">
<path d="M21.8811 0C21.9209 0 21.9548 0.0201359 21.9947 0.0241631H22.4055C22.8122 0.0241631 23.201 0.191291 23.4842 0.489303L33.5833 11.113C33.8505 11.3949 34 11.7694 34 12.1601V30.6167C34 35.703 29.9105 40 25.0693 40H9.14004C4.01572 40 0 35.8782 0 30.6167V25.5706C0 24.737 0.669951 24.0604 1.49543 24.0604C2.3209 24.0604 2.99085 24.737 2.99085 25.5706V30.6167C2.99085 34.1847 5.69259 36.9796 9.14004 36.9796H25.0693C28.2336 36.9796 31.0091 34.0055 31.0091 30.6167V12.7662L23.3765 4.73798V7.36975C23.3765 9.39139 25.0035 11.0405 27.0054 11.0446C27.8309 11.0466 28.4988 11.7231 28.4968 12.5588C28.4948 13.3904 27.8269 14.0649 27.0014 14.0649C23.3526 14.0569 20.3856 11.0546 20.3856 7.36975V3.04455H9.14004C5.80624 3.04455 2.99085 5.79109 2.99085 9.04304V17.3612C2.99085 18.1948 2.3209 18.8714 1.49543 18.8714C0.669951 18.8714 0 18.1948 0 17.3612V9.04304C0 4.15404 4.1852 0.0241631 9.14004 0.0241631H21.7654C21.8053 0.0201359 21.8392 0 21.8811 0ZM21.5032 25.7903C22.3287 25.7903 22.9987 26.4669 22.9987 27.3005C22.9987 28.1341 22.3287 28.8107 21.5032 28.8107H10.7401C9.91467 28.8107 9.24472 28.1341 9.24472 27.3005C9.24472 26.4669 9.91467 25.7903 10.7401 25.7903H21.5032ZM17.4317 15.8186C18.2572 15.8186 18.9271 16.4951 18.9271 17.3288C18.9271 18.1624 18.2572 18.839 17.4317 18.839H10.7401C9.91467 18.839 9.24472 18.1624 9.24472 17.3288C9.24472 16.4951 9.91467 15.8186 10.7401 15.8186H17.4317Z" fill="url(#paint0_angular_43_39)"/>
<defs>
<radialGradient id="paint0_angular_43_39" cx="0" cy="0" r="1" gradientUnits="userSpaceOnUse" gradientTransform="translate(17 20) rotate(90) scale(20 17)">
<stop stop-color="#0014FF"/>
<stop offset="1" stop-color="#FF2CDF"/>
</radialGradient>
</defs>
</svg>
