<svg width="36" height="38" viewBox="0 0 36 38" fill="none" xmlns="http://www.w3.org/2000/svg">
<path d="M5.42544 8.54838C5.42544 7.6365 6.17225 6.90041 7.09242 6.90041L30.2967 6.90041L26.1426 2.81561C25.4914 2.174 25.4892 1.13028 26.1382 0.484272C26.7872 -0.159538 27.8429 -0.161736 28.4964 0.479877L35.5088 7.38161C35.8311 7.69583 36 8.11771 36 8.54838C36 8.76152 35.9578 8.97466 35.8733 9.17681C35.6155 9.79426 35.0087 10.1964 34.333 10.1964L7.09242 10.1964C6.17225 10.1964 5.42544 9.45807 5.42544 8.54838ZM24.9628 15.4435L28.2234 12.2355C28.8769 11.5938 29.9304 11.596 30.5794 12.2421C30.9039 12.5629 31.0662 12.9847 31.0662 13.4044C31.0662 13.8263 30.9039 14.2504 30.575 14.5734L27.3166 17.7815C26.6632 18.4231 25.6074 18.4209 24.9584 17.7749C24.3094 17.1311 24.3094 16.0895 24.9628 15.4435ZM0.490304 27.0148L8.68071 18.9506C9.33417 18.3068 10.3899 18.309 11.0389 18.955C11.6879 19.601 11.6879 20.6426 11.0345 21.2842L5.7046 26.5335H28.9045C29.8246 26.5335 30.5714 27.2718 30.5714 28.1815C30.5714 29.0912 29.8246 29.8295 28.9045 29.8295H1.66608C0.990397 29.8295 0.383618 29.4274 0.125792 28.81C-0.129811 28.1969 0.0102154 27.485 0.490304 27.0148ZM5.417 31.8739C6.066 31.2301 7.12176 31.2279 7.77521 31.8695L11.0336 35.0797C11.3625 35.4006 11.5248 35.8246 11.5248 36.2465C11.5248 36.6662 11.3625 37.0881 11.038 37.4089C10.389 38.0549 9.3355 38.0571 8.68205 37.4133L5.42144 34.2052C4.76799 33.5614 4.76799 32.5199 5.417 31.8739Z" fill="url(#paint0_angular_43_40)"/>
<defs>
<radialGradient id="paint0_angular_43_40" cx="0" cy="0" r="1" gradientUnits="userSpaceOnUse" gradientTransform="translate(18 18.9474) scale(18 18.9474)">
<stop offset="0.046875" stop-color="#0014FF"/>
<stop offset="0.875" stop-color="#FF2CDF"/>
</radialGradient>
</defs>
</svg>
