<svg width="170" height="42" viewBox="0 0 170 42" fill="none" xmlns="http://www.w3.org/2000/svg">
<g style="mix-blend-mode:luminosity" clip-path="url(#clip0_25_91)">
<path d="M51.8601 28.638H63.8121V25.038H56.1081V11.478H51.8601V28.638Z" fill="#340E0E"/>
<path d="M70.8932 26.238C69.1892 26.238 68.3012 24.75 68.3012 22.518C68.3012 20.286 69.1892 18.774 70.8932 18.774C72.5972 18.774 73.5092 20.286 73.5092 22.518C73.5092 24.75 72.5972 26.238 70.8932 26.238ZM70.9172 29.022C74.8772 29.022 77.4692 26.214 77.4692 22.518C77.4692 18.822 74.8772 16.014 70.9172 16.014C66.9812 16.014 64.3412 18.822 64.3412 22.518C64.3412 26.214 66.9812 29.022 70.9172 29.022Z" fill="#340E0E"/>
<path d="M84.3237 32.886C86.1477 32.886 87.7557 32.478 88.8357 31.518C89.8197 30.63 90.4677 29.286 90.4677 27.438V16.35H86.7237V17.67H86.6757C85.9557 16.638 84.8517 15.99 83.2197 15.99C80.1717 15.99 78.0597 18.534 78.0597 22.134C78.0597 25.902 80.6277 27.966 83.3877 27.966C84.8757 27.966 85.8117 27.366 86.5317 26.55H86.6277V27.774C86.6277 29.262 85.9317 30.126 84.2757 30.126C82.9797 30.126 82.3317 29.574 82.1157 28.926H78.3237C78.7077 31.494 80.9397 32.886 84.3237 32.886ZM84.2997 25.062C82.8357 25.062 81.8757 23.862 81.8757 22.014C81.8757 20.142 82.8357 18.942 84.2997 18.942C85.9317 18.942 86.7957 20.334 86.7957 21.99C86.7957 23.718 86.0037 25.062 84.2997 25.062Z" fill="#340E0E"/>
<path d="M98.166 26.238C96.462 26.238 95.574 24.75 95.574 22.518C95.574 20.286 96.462 18.774 98.166 18.774C99.87 18.774 100.782 20.286 100.782 22.518C100.782 24.75 99.87 26.238 98.166 26.238ZM98.19 29.022C102.15 29.022 104.742 26.214 104.742 22.518C104.742 18.822 102.15 16.014 98.19 16.014C94.254 16.014 91.614 18.822 91.614 22.518C91.614 26.214 94.254 29.022 98.19 29.022Z" fill="#340E0E"/>
<path d="M105.884 28.638H109.796V16.35H105.884V28.638ZM105.884 14.646H109.796V11.478H105.884V14.646Z" fill="#340E0E"/>
<path d="M111.494 32.694H115.406V27.366H115.454C116.222 28.398 117.35 29.022 118.934 29.022C122.15 29.022 124.286 26.478 124.286 22.494C124.286 18.798 122.294 15.99 119.03 15.99C117.35 15.99 116.15 16.734 115.31 17.838H115.238V16.35H111.494V32.694ZM117.926 25.998C116.246 25.998 115.286 24.63 115.286 22.638C115.286 20.646 116.15 19.134 117.854 19.134C119.534 19.134 120.326 20.526 120.326 22.638C120.326 24.726 119.414 25.998 117.926 25.998Z" fill="#340E0E"/>
<path d="M130.655 29.022C133.871 29.022 136.247 27.63 136.247 24.942C136.247 21.798 133.703 21.246 131.543 20.886C129.983 20.598 128.591 20.478 128.591 19.614C128.591 18.846 129.335 18.486 130.295 18.486C131.375 18.486 132.119 18.822 132.263 19.926H135.863C135.671 17.502 133.799 15.99 130.319 15.99C127.415 15.99 125.015 17.334 125.015 19.926C125.015 22.806 127.295 23.382 129.431 23.742C131.063 24.03 132.551 24.15 132.551 25.254C132.551 26.046 131.807 26.478 130.631 26.478C129.335 26.478 128.519 25.878 128.375 24.654H124.679C124.799 27.366 127.055 29.022 130.655 29.022Z" fill="#340E0E"/>
<path d="M141.561 28.998C143.265 28.998 144.345 28.326 145.233 27.126H145.305V28.638H149.049V16.35H145.137V23.214C145.137 24.678 144.321 25.686 142.977 25.686C141.729 25.686 141.129 24.942 141.129 23.598V16.35H137.241V24.414C137.241 27.15 138.729 28.998 141.561 28.998Z" fill="#340E0E"/>
<path d="M150.75 28.638H154.662V21.75C154.662 20.286 155.382 19.254 156.606 19.254C157.782 19.254 158.334 20.022 158.334 21.342V28.638H162.246V21.75C162.246 20.286 162.942 19.254 164.19 19.254C165.366 19.254 165.918 20.022 165.918 21.342V28.638H169.83V20.646C169.83 17.886 168.438 15.99 165.654 15.99C164.07 15.99 162.75 16.662 161.79 18.15H161.742C161.118 16.83 159.894 15.99 158.286 15.99C156.51 15.99 155.334 16.83 154.566 18.102H154.494V16.35H150.75V28.638Z" fill="#340E0E"/>
<path fill-rule="evenodd" clip-rule="evenodd" d="M20.6841 40.638C31.7298 40.638 40.6841 31.6837 40.6841 20.638C40.6841 9.59237 31.7298 0.638062 20.6841 0.638062C9.63837 0.638062 0.684082 9.59237 0.684082 20.638C0.684082 31.6837 9.63837 40.638 20.6841 40.638ZM26.9234 9.9549C27.2271 8.87611 26.1802 8.23819 25.2241 8.91936L11.8772 18.4276C10.8403 19.1663 11.0034 20.638 12.1222 20.638H15.6368V20.6108H22.4866L16.9053 22.5801L14.4448 31.3212C14.1411 32.4 15.1879 33.0379 16.1441 32.3567L29.491 22.8485C30.5279 22.1098 30.3647 20.638 29.246 20.638H23.9162L26.9234 9.9549Z" fill="#F15757"/>
</g>
<defs>
<clipPath id="clip0_25_91">
<rect width="170" height="41" fill="white" transform="translate(0 0.5)"/>
</clipPath>
</defs>
</svg>
