<svg width="128" height="31" viewBox="0 0 128 31" fill="none" xmlns="http://www.w3.org/2000/svg">
<path d="M36.51 9.75998H39.72V22.76H36.51V9.75998ZM41 17.87C41 14.65 43 12.72 46 12.72C49 12.72 51 14.65 51 17.87C51 21.09 49.07 23.04 46 23.04C42.93 23.04 41 21.16 41 17.87ZM47.82 17.87C47.82 16.1 47.13 15.06 46.03 15.06C44.93 15.06 44.25 16.06 44.25 17.87C44.25 19.68 44.93 20.67 46.03 20.67C47.13 20.67 47.84 19.68 47.84 17.88L47.82 17.87ZM52.28 23.43H55.38C55.5211 23.7637 55.7676 24.0422 56.0818 24.2227C56.396 24.4033 56.7606 24.4761 57.12 24.43C58.35 24.43 58.99 23.77 58.99 22.79V20.99H59C58.7351 21.5505 58.3067 22.0176 57.7713 22.33C57.2358 22.6424 56.6183 22.7853 56 22.74C53.65 22.74 52.09 20.95 52.09 17.87C52.09 14.79 53.58 12.87 56.09 12.87C56.7241 12.8361 57.3532 12.9996 57.8904 13.3381C58.4277 13.6766 58.8468 14.1734 59.09 14.76H59V12.95H62.18V22.69C62.18 25.04 60.1 26.51 57.04 26.51C54.26 26.5 52.48 25.23 52.3 23.44L52.28 23.43ZM59 17.87C59 16.3 58.28 15.31 57.14 15.31C56 15.31 55.3 16.31 55.3 17.87C55.3 19.43 55.99 20.35 57.14 20.35C58.29 20.35 59 19.5 59 17.87ZM63.45 17.87C63.45 14.65 65.45 12.72 68.45 12.72C71.45 12.72 73.45 14.65 73.45 17.87C73.45 21.09 71.51 23.04 68.45 23.04C65.39 23.04 63.47 21.16 63.47 17.87H63.45ZM70.27 17.87C70.27 16.1 69.57 15.06 68.48 15.06C67.39 15.06 66.7 16.06 66.7 17.87C66.7 19.68 67.38 20.67 68.48 20.67C69.58 20.67 70.29 19.68 70.29 17.88L70.27 17.87ZM74.75 10.58C74.736 10.253 74.8202 9.92929 74.9917 9.65059C75.1632 9.37179 75.4142 9.15078 75.7124 9.01588C76.0106 8.88088 76.3423 8.83828 76.6649 8.89348C76.9875 8.94858 77.2862 9.09898 77.5226 9.32528C77.759 9.55168 77.9223 9.84348 77.9915 10.1634C78.0606 10.4833 78.0325 10.8166 77.9107 11.1203C77.7889 11.4241 77.579 11.6845 77.308 11.868C77.037 12.0515 76.7173 12.1497 76.39 12.15C76.1809 12.1553 75.9727 12.119 75.7777 12.0433C75.5827 11.9675 75.4046 11.8537 75.2539 11.7086C75.1032 11.5635 74.9828 11.3899 74.8998 11.1978C74.8167 11.0058 74.7726 10.7992 74.77 10.59L74.75 10.58ZM74.75 12.94H78V22.8H74.8L74.75 12.94ZM89.69 17.87C89.69 21.08 88.25 22.94 85.8 22.94C85.1728 22.9787 84.5488 22.8239 84.0123 22.4967C83.4758 22.1694 83.0527 21.6854 82.8 21.11H82.74V25.97H79.53V12.97H82.72V14.73H82.78C83.024 14.1433 83.443 13.646 83.9798 13.306C84.5167 12.966 85.1453 12.7998 85.78 12.83C88.3 12.81 89.75 14.66 89.75 17.88L89.69 17.87ZM86.42 17.87C86.42 16.31 85.69 15.3 84.56 15.3C83.43 15.3 82.72 16.3 82.71 17.87C82.7 19.44 83.43 20.43 84.56 20.43C85.69 20.43 86.48 19.5 86.48 17.88L86.42 17.87ZM95.17 12.71C97.86 12.71 99.53 13.98 99.55 16.02H96.62C96.62 15.31 96.03 14.87 95.15 14.87C94.27 14.87 93.85 15.21 93.85 15.72C93.85 16.23 94.22 16.39 94.96 16.54L97.02 16.96C99.02 17.38 99.82 18.18 99.82 19.67C99.82 21.67 97.97 23.03 95.22 23.03C92.47 23.03 90.68 21.71 90.55 19.7H93.66C93.75 20.43 94.33 20.86 95.27 20.86C96.21 20.86 96.65 20.56 96.65 20.03C96.65 19.5 96.35 19.41 95.58 19.25L93.72 18.86C91.79 18.45 90.78 17.44 90.78 15.93C90.84 13.97 92.52 12.72 95.23 12.72L95.17 12.71ZM110.57 22.79H107.46V20.94H107.4C107.226 21.5571 106.847 22.0964 106.325 22.469C105.803 22.8417 105.17 23.0254 104.53 22.99C104.047 23.0057 103.565 22.9191 103.118 22.7357C102.671 22.5524 102.267 22.2765 101.934 21.9262C101.6 21.5758 101.345 21.1589 101.184 20.7029C101.023 20.2469 100.96 19.7619 101 19.28V12.95H104.21V18.59C104.21 19.75 104.82 20.38 105.82 20.38C106.055 20.3782 106.286 20.3261 106.499 20.2273C106.712 20.1284 106.901 19.985 107.053 19.8068C107.206 19.6286 107.319 19.4197 107.384 19.1943C107.448 18.9688 107.464 18.7321 107.43 18.5V12.95H110.63L110.57 22.79ZM112.12 12.94H115.24V14.84H115.31C115.482 14.2313 115.852 13.697 116.36 13.3206C116.869 12.9443 117.488 12.7471 118.12 12.76C118.755 12.7048 119.388 12.8884 119.894 13.2749C120.401 13.6614 120.745 14.2231 120.86 14.85H121C121.2 14.2197 121.602 13.6731 122.145 13.2952C122.687 12.9172 123.34 12.7291 124 12.76C124.439 12.7433 124.877 12.8195 125.284 12.9836C125.692 13.1476 126.06 13.3959 126.365 13.7122C126.67 14.0284 126.904 14.4055 127.053 14.8187C127.203 15.2319 127.263 15.6719 127.23 16.11V22.8H124V16.93C124 15.93 123.53 15.37 122.62 15.37C122.418 15.3667 122.218 15.4071 122.033 15.4883C121.848 15.5696 121.684 15.6899 121.55 15.8409C121.416 15.992 121.316 16.1701 121.257 16.3633C121.199 16.5565 121.183 16.76 121.21 16.96V22.8H118.15V16.9C118.15 15.9 117.66 15.37 116.78 15.37C116.576 15.3684 116.374 15.4104 116.188 15.4932C116.001 15.5761 115.835 15.6978 115.699 15.8503C115.564 16.0028 115.463 16.1825 115.403 16.3773C115.342 16.5722 115.324 16.7777 115.35 16.98V22.8H112.14L112.12 12.94Z" fill="#394149"/>
<path d="M30.16 10.61C30.1601 8.61967 29.5591 6.67573 28.4357 5.03279C27.3123 3.38985 25.7188 2.1245 23.8641 1.4025C22.0094 0.68049 19.9798 0.53549 18.0413 0.98648C16.1027 1.43747 14.3456 2.46343 13 3.92997H0.52002V30.27H26.87V17.96C27.9042 17.035 28.7318 15.9023 29.2987 14.6358C29.8656 13.3693 30.1591 11.9976 30.16 10.61ZM25.09 10.61C25.092 11.5637 24.811 12.4966 24.2826 13.2906C23.7541 14.0845 23.0021 14.7039 22.1215 15.0702C21.2409 15.4366 20.2715 15.5335 19.3358 15.3486C18.4002 15.1638 17.5404 14.7055 16.8653 14.0318C16.1902 13.3581 15.7302 12.4993 15.5434 11.564C15.3566 10.6288 15.4515 9.65907 15.816 8.77777C16.1805 7.89643 16.7983 7.14306 17.5911 6.61299C18.384 6.08292 19.3163 5.79998 20.27 5.79997C21.5466 5.79997 22.7711 6.30642 23.6747 7.20818C24.5784 8.10994 25.0874 9.33337 25.09 10.61ZM21.8 25.2H5.59002V8.99997H10.53C10.4346 9.53147 10.3844 10.0701 10.38 10.61C10.3827 13.2322 11.4255 15.7462 13.2797 17.6004C15.1338 19.4545 17.6478 20.4974 20.27 20.5C20.7827 20.4973 21.2943 20.4538 21.8 20.37V25.2Z" fill="#394149"/>
</svg>
