<svg width="165" height="44" viewBox="0 0 165 44" fill="none" xmlns="http://www.w3.org/2000/svg">
<g clip-path="url(#clip0_26_109)">
<path d="M165 9.31767C165 11.0691 163.652 12.4444 161.897 12.4444C160.161 12.4444 158.776 11.0691 158.776 9.31767C158.776 7.60338 160.161 6.22882 161.897 6.22882C163.652 6.22882 165 7.60338 165 9.31767ZM159.552 9.31767C159.552 10.6931 160.549 11.7848 161.916 11.7848C163.245 11.7848 164.225 10.6931 164.225 9.33663C164.225 7.96125 163.245 6.85055 161.897 6.85055C160.549 6.85055 159.552 7.96125 159.552 9.31767ZM161.417 10.9371H160.715V7.84828C161.099 7.77843 161.489 7.74585 161.879 7.75098C162.451 7.75098 162.71 7.84498 162.93 7.97691C163.026 8.06014 163.103 8.16435 163.154 8.28182C163.205 8.3993 163.23 8.52703 163.226 8.65554C163.226 8.99444 162.967 9.2583 162.598 9.37127V9.40837C162.893 9.52134 163.059 9.74727 163.151 10.162C163.244 10.6329 163.299 10.8217 163.373 10.9338H162.616C162.523 10.8209 162.468 10.5389 162.374 10.181C162.318 9.8421 162.131 9.6912 161.745 9.6912H161.413L161.417 10.9371ZM161.436 9.18574H161.768C162.156 9.18574 162.47 9.05381 162.47 8.73387C162.47 8.45104 162.267 8.26304 161.823 8.26304C161.693 8.26016 161.562 8.27289 161.435 8.30097L161.436 9.18574Z" fill="white"/>
<path d="M6.65492 44L4.37219 38.5166L12.1406 35.154V9.3053L4.50481 5.29623L7.1789 0L17.982 5.67141V39.0971L6.65492 44Z" fill="white"/>
<path d="M5.84226 12.4593H0V31.4475H5.84226V12.4593Z" fill="white"/>
<path d="M18.7947 44L16.5128 38.5166L24.2803 35.154V9.3053L16.6454 5.29623L19.3195 0L30.1226 5.67141V39.0971L18.7947 44Z" fill="white"/>
<path d="M36.1064 30.1216C34.6412 28.5709 33.9083 26.1598 33.9078 22.8885V21.1965C33.8999 20.2263 33.9879 19.2577 34.1706 18.3055C34.3299 17.4794 34.5949 16.6782 34.959 15.9225C35.6598 14.4746 36.6506 13.3839 37.9315 12.6506C39.2123 11.9173 40.7012 11.5509 42.3983 11.5514C43.203 11.5464 44.0057 11.6363 44.7901 11.8194C45.5219 11.992 46.2251 12.272 46.878 12.6506C48.1502 13.3845 49.1413 14.4655 49.8513 15.8936C50.5613 17.3218 50.916 19.0891 50.9154 21.1956V22.8877C50.9154 26.1216 50.1459 28.5233 48.6068 30.0928C47.0678 31.6622 44.9893 32.4475 42.3716 32.4486C39.6605 32.4486 37.5722 31.6729 36.1064 30.1216ZM45.9659 27.4426C46.7583 26.3613 47.1545 24.7963 47.1545 22.7475V21.3655C47.1545 19.2414 46.7583 17.6294 45.9659 16.5294C45.1734 15.4294 43.9842 14.8797 42.3983 14.8802C40.794 14.8802 39.6048 15.4396 38.8306 16.5582C38.0565 17.6769 37.6695 19.2711 37.6695 21.3408V22.7508C37.6695 24.8001 38.0565 26.3652 38.8306 27.4459C39.6048 28.5266 40.794 29.0673 42.3983 29.0678C43.9832 29.0656 45.1724 28.5239 45.9659 27.4426Z" fill="white"/>
<path d="M57.4692 32.0256H54.0407V11.9184H57.4975L65.9322 25.5114L66.457 26.8365L66.3471 25.3968V11.9184H69.7756V32.0256H66.4295L57.8841 18.2635L57.331 16.9384L57.4692 18.3484V32.0256Z" fill="white"/>
<path d="M84.7641 27.5135H76.9383L75.444 32.0256H71.7389L78.9016 11.9184H82.6625L89.991 32.0256H86.3134L84.7641 27.5135ZM77.9612 24.3801H83.6862L80.9757 16.4914L80.7809 15.3873L80.5884 16.4914L77.9612 24.3801Z" fill="white"/>
<path d="M91.9269 32.0256V11.9184H99.4761C102.076 11.9184 103.965 12.365 105.145 13.2583C106.325 14.1516 106.915 15.4346 106.915 17.1074C106.915 18.3107 106.68 19.2884 106.21 20.0404C105.74 20.7924 105.044 21.3564 104.122 21.7324C105.155 22.0892 105.943 22.6296 106.487 23.3535C107.031 24.0775 107.303 25.061 107.304 26.3039C107.304 28.1278 106.691 29.5378 105.465 30.5339C104.239 31.53 102.354 32.0283 99.8093 32.0289L91.9269 32.0256ZM95.4662 14.9074V20.2375H99.6144C100.832 20.2375 101.758 20.0214 102.394 19.5894C103.031 19.1573 103.348 18.4616 103.348 17.5024C103.348 16.6184 103.053 15.9651 102.463 15.5424C101.873 15.1196 100.915 14.908 99.5869 14.9074H95.4662ZM95.4662 23.2266V28.8666H99.3379C100.887 28.8666 101.984 28.6223 102.629 28.1336C103.274 27.6449 103.597 26.9303 103.599 25.9897C103.599 25.0129 103.254 24.3078 102.563 23.8747C101.872 23.4415 100.816 23.2252 99.3961 23.2257L95.4662 23.2266Z" fill="white"/>
<path d="M124.034 32.0256H110.041V11.9184H123.564V15.1053H113.553V20.2655H122.043V23.4813H113.553V28.7264H124.034V32.0256Z" fill="white"/>
<path d="M126.578 32.0256V11.9184H130.229V28.5566H139.741V32.0256H126.578Z" fill="white"/>
<path d="M156.306 32.0256H142.317V11.9184H155.84V15.1053H145.829V20.2655H154.32V23.4813H145.829V28.7264H156.306V32.0256Z" fill="white"/>
</g>
<defs>
<clipPath id="clip0_26_109">
<rect width="165" height="44" fill="white"/>
</clipPath>
</defs>
</svg>
